# xmcd CD database file
#
# Track frame offsets:
#	225
#	22653
#	38480
#	53959
#	69857
#	81208
#	98752
#	110698
#	126099
#	137198
#	152956
#	171077
#	189354
#	206731
#	219948
#
# Disc length: 3173 seconds
#
# Revision: 0
# Processed by: cddbd v1.5.2PL0 Copyright (c) Steve Scherf et al.
# Submitted via: CDex 1.79
#
DISCID=c60c620f
DTITLE=Big Al Downing - Classic Collection [CD1)
DYEAR=1997
DGENRE=Country
TTITLE0=Mr. Jones
TTITLE1=Beer Drinkin` People
TTITLE2=The Story Behind The Story
TTITLE3=Countin` Highway Signs
TTITLE4=I Ain`t No Fool
TTITLE5=I`ll Be Loving You
TTITLE6=Just Strangers
TTITLE7=Does He Know About Me
TTITLE8=Don`t Mess With An Angel
TTITLE9=Song Of Home
TTITLE10=Kid At The Bar
TTITLE11=There`ll Never Be A Better Night
TTITLE12=Fool Of The Year
TTITLE13=It Takes Love
TTITLE14=Honky Tonk Country (demo)
EXTD=YEAR: 1997
EXTT0=
EXTT1=
EXTT2=
EXTT3=
EXTT4=
EXTT5=
EXTT6=
EXTT7=
EXTT8=
EXTT9=
EXTT10=
EXTT11=
EXTT12=
EXTT13=
EXTT14=
PLAYORDER=
